<?xml version="1.0" encoding="UTF-8" standalone="no"?>
<!-- Created with Inkscape (http://www.inkscape.org/) -->

<svg
   width="186.57886mm"
   height="119.28803mm"
   viewBox="0 0 186.57886 119.28803"
   version="1.1"
   id="svg1"
   xml:space="preserve"
   inkscape:version="1.3.2 (091e20e, 2023-11-25, custom)"
   sodipodi:docname="link-to-link.svg"
   xmlns:inkscape="http://www.inkscape.org/namespaces/inkscape"
   xmlns:sodipodi="http://sodipodi.sourceforge.net/DTD/sodipodi-0.dtd"
   xmlns:xlink="http://www.w3.org/1999/xlink"
   xmlns="http://www.w3.org/2000/svg"
   xmlns:svg="http://www.w3.org/2000/svg"><sodipodi:namedview
     id="namedview1"
     pagecolor="#ffffff"
     bordercolor="#666666"
     borderopacity="1.0"
     inkscape:showpageshadow="2"
     inkscape:pageopacity="0.0"
     inkscape:pagecheckerboard="0"
     inkscape:deskcolor="#d1d1d1"
     inkscape:document-units="mm"
     inkscape:zoom="1.4349764"
     inkscape:cx="329.97059"
     inkscape:cy="161.3267"
     inkscape:window-width="2560"
     inkscape:window-height="1377"
     inkscape:window-x="2552"
     inkscape:window-y="-8"
     inkscape:window-maximized="1"
     inkscape:current-layer="layer1" /><defs
     id="defs1"><path
       id="a"
       d="M 0,47.473 H 126 V 0 H 0 Z" /><mask
       id="b"
       fill="#ffffff"><use
         xlink:href="#a"
         id="use1" /></mask></defs><g
     inkscape:label="Layer 1"
     inkscape:groupmode="layer"
     id="layer1"
     transform="translate(-11.331815,-82.318665)"><rect
       style="fill:none;fill-opacity:1;stroke:#3f3d56;stroke-width:0.499999;stroke-linecap:round;stroke-dasharray:none;stroke-opacity:1"
       id="rect27"
       width="44.657917"
       height="33.555023"
       x="79.908691"
       y="106.74959"
       rx="1.7600936"
       ry="1.1481545" /><rect
       x="67.130051"
       y="158.90535"
       width="62.678001"
       height="42.701347"
       fill="#6c63ff"
       id="rect1"
       style="stroke-width:0.182352" /><path
       d="M 133.30375,153.91074 H 71.625031 a 0.7506116,0.7506116 0 0 0 -0.749475,0.74946 v 41.70207 a 0.7494409,0.7494409 0 0 0 0.749475,0.74946 h 61.678719 a 0.74943726,0.74943726 0 0 0 0.74946,-0.74946 V 154.6602 a 0.75060796,0.75060796 0 0 0 -0.74946,-0.74946 z m 0.24982,42.45153 a 0.24903438,0.24903438 0 0 1 -0.24982,0.24982 H 71.625031 a 0.24903621,0.24903621 0 0 1 -0.249822,-0.24982 V 154.6602 a 0.25019961,0.25019961 0 0 1 0.249822,-0.24982 h 61.678719 a 0.25019779,0.25019779 0 0 1 0.24982,0.24982 z"
       fill="#3f3d56"
       id="path1"
       style="stroke-width:0.182352" /><rect
       x="74.122025"
       y="183.4425"
       width="28.2176"
       height="3.2462728"
       rx="0.52916664"
       fill="#3f3d56"
       id="rect2"
       ry="0.52916664"
       style="stroke-width:0.182352" /><path
       d="m 128.0593,180.63076 h -8.98813 a 0.74945002,0.74945002 0 0 0 -0.74947,0.74947 v 6.99137 a 0.7494409,0.7494409 0 0 0 0.74947,0.74947 h 8.98813 a 0.74942996,0.74942996 0 0 0 0.74946,-0.74947 v -6.99137 a 0.74943908,0.74943908 0 0 0 -0.74946,-0.74947 z m 0.24982,7.74084 a 0.25019779,0.25019779 0 0 1 -0.24982,0.24982 h -8.98813 a 0.25020873,0.25020873 0 0 1 -0.24983,-0.24982 v -6.99137 a 0.24904532,0.24904532 0 0 1 0.24983,-0.24982 h 8.98813 a 0.24903438,0.24903438 0 0 1 0.24982,0.24982 z"
       fill="#3f3d56"
       id="path2"
       style="stroke-width:0.182352" /><rect
       x="120.50146"
       y="182.24399"
       width="6.1275792"
       height="1.2677745"
       rx="0.52916664"
       fill="#3f3d56"
       id="rect3"
       ry="0.52916664"
       style="stroke-width:0.182352" /><rect
       x="120.50146"
       y="184.2417"
       width="6.1275792"
       height="1.2677745"
       rx="0.52916664"
       fill="#3f3d56"
       id="rect4"
       ry="0.52916664"
       style="stroke-width:0.182352" /><rect
       x="120.50146"
       y="186.23941"
       width="6.1275792"
       height="1.2677745"
       rx="0.52916664"
       fill="#3f3d56"
       id="rect5"
       ry="0.52916664"
       style="stroke-width:0.182352" /><rect
       x="74.87117"
       y="156.9077"
       width="12.985091"
       height="5.4936929"
       rx="0.52916664"
       fill="#3f3d56"
       id="rect6"
       ry="0.52916664"
       style="stroke-width:0.182352" /><polygon
       points="899.992,385.451 672.992,385.451 672.992,387.451 901.992,387.451 901.992,161.837 899.992,161.837 "
       fill="#3f3d56"
       id="polygon6"
       transform="matrix(0.18235193,0,0,0.18235193,11.33181,105.04123)" /><polygon
       points="76.992,161.837 78.992,161.837 78.992,385.451 305.992,385.451 305.992,387.451 76.992,387.451 "
       fill="#3f3d56"
       id="polygon7"
       transform="matrix(0.18235193,0,0,0.18235193,11.33181,105.04123)" /><path
       d="m 39.686082,121.07209 h -0.312444 v -8.5593 a 4.9538911,4.9538911 0 0 0 -4.953905,-4.9539 H 16.285716 a 4.9538892,4.9538892 0 0 0 -4.953901,4.9539 v 46.95699 a 4.9538892,4.9538892 0 0 0 4.953906,4.95389 h 18.134022 a 4.9538911,4.9538911 0 0 0 4.953901,-4.95389 v -32.30504 h 0.312438 z"
       fill="#3f3d56"
       id="path14"
       style="stroke-width:0.182352" /><path
       d="m 38.318692,112.80394 v 46.88851 a 3.6996453,3.6996453 0 0 1 -3.698978,3.70027 H 16.39815 a 3.6996325,3.6996325 0 0 1 -3.698963,-3.70027 v -46.88851 a 3.6993517,3.6993517 0 0 1 3.698963,-3.69895 h 2.2107 a 1.7574295,1.7574295 0 0 0 1.627491,2.42087 h 10.388876 a 1.7574113,1.7574113 0 0 0 1.627491,-2.42087 h 2.367014 a 3.6993736,3.6993736 0 0 1 3.69897,3.69895 z"
       fill="#d0cde1"
       id="path15"
       style="stroke-width:0.182352" /><rect
       x="23.068312"
       y="136.72908"
       width="4.8812728"
       height="1.4465213"
       rx="0.52916664"
       fill="#3f3d56"
       id="rect15"
       ry="0.52916664"
       style="stroke-width:0.182352" /><rect
       x="17.167072"
       y="125.46688"
       width="16.683754"
       height="0.61993819"
       rx="0.44974929"
       fill="#3f3d56"
       id="rect16"
       ry="0.44974929"
       style="stroke-width:0.182352" /><rect
       x="17.167072"
       y="127.43002"
       width="16.683754"
       height="0.61993819"
       rx="0.44974929"
       fill="#3f3d56"
       id="rect17"
       ry="0.44974929"
       style="stroke-width:0.182352" /><rect
       x="17.167072"
       y="129.39314"
       width="16.683754"
       height="0.61993819"
       rx="0.44974929"
       fill="#3f3d56"
       id="rect18"
       ry="0.44974929"
       style="stroke-width:0.182352" /><rect
       x="17.167072"
       y="131.35628"
       width="16.683754"
       height="0.61993819"
       rx="0.44974929"
       fill="#3f3d56"
       id="rect19"
       ry="0.44974929"
       style="stroke-width:0.182352" /><rect
       x="17.167072"
       y="133.31941"
       width="16.683754"
       height="0.61993819"
       rx="0.44974929"
       fill="#3f3d56"
       id="rect20"
       ry="0.44974929"
       style="stroke-width:0.182352" /><circle
       cx="24.073641"
       cy="151.78802"
       r="5.2540841"
       fill="#6c63ff"
       id="circle20"
       style="stroke-width:0.182352" /><path
       d="m 25.622266,155.84063 a 6.5873942,6.5873942 0 1 1 6.587387,-6.58739 6.5948469,6.5948469 0 0 1 -6.587387,6.58739 z m 0,-12.93524 a 6.347853,6.347853 0 1 0 6.347853,6.34785 6.3549939,6.3549939 0 0 0 -6.347853,-6.34785 z"
       fill="#3f3d56"
       id="path20"
       style="stroke-width:0.182352" /><rect
       x="38.229553"
       y="173.45779"
       width="5.105854"
       height="5.105854"
       fill="#d0cde1"
       id="rect21"
       style="stroke-width:0.182352" /><path
       d="m 46.435388,175.64602 h -6.199966 v -6.19997 h 6.199966 z m -5.930402,-0.26956 h 5.660839 v -5.66084 h -5.660839 z"
       fill="#3f3d56"
       id="path21"
       style="stroke-width:0.182352" /><rect
       x="152.56421"
       y="173.45779"
       width="5.105854"
       height="5.105854"
       fill="#d0cde1"
       id="rect22"
       style="stroke-width:0.182352" /><path
       d="m 160.77005,175.64602 h -6.19997 v -6.19997 h 6.19997 z m -5.9304,-0.26956 h 5.66083 v -5.66084 h -5.66083 z"
       fill="#3f3d56"
       id="path22"
       style="stroke-width:0.182352" /><path
       d="m 183.02686,126.40875 c -0.50596,-0.7085 -1.19089,-1.2269 -2.05198,-1.42091 -0.75086,-0.16919 -1.52295,-0.14036 -2.28621,-0.13447 l -9.65107,0.0744 c -0.82655,0.006 -1.61904,0.72246 -1.58064,1.58064 0.0381,0.85094 0.69466,1.58748 1.58064,1.58065 q 4.24065,-0.0327 8.48126,-0.0654 c 0.6665,-0.005 1.33338,-0.0172 1.99993,-0.015 0.14968,4.9e-4 0.29873,0.008 0.44827,0.0101 0.0362,3.9e-4 0.0624,8e-5 0.0808,-7e-4 0.005,0.001 0.009,0.003 0.0146,0.004 0.078,0.0214 0.15803,0.0362 0.23651,0.0565 -0.0275,7.9e-4 0.0509,0.0497 0.0902,0.0663 0.005,0.0107 0.0169,0.0296 0.0362,0.0588 0.0269,0.0504 0.10641,0.20337 0.10969,0.19855 a 7.0893777,7.0893777 0 0 1 0.29507,0.92793 c 0.18369,0.69619 0.22406,0.84172 0.25049,1.49489 0.0334,0.8251 0.70311,1.61995 1.58065,1.58065 0.82775,-0.0371 1.61649,-0.69572 1.58065,-1.58065 -0.0604,-1.49116 -0.32213,-3.16619 -1.2151,-4.41668 z"
       fill="#e6e6e6"
       id="path1-5"
       style="stroke-width:0.0684199" /><path
       d="m 169.60492,129.97563 c -0.18128,-1.09851 -0.35908,-2.19773 -0.54387,-3.2956 -0.18751,-1.11378 -0.57046,-2.13369 -1.43719,-2.86468 -0.23159,-0.19529 -0.47172,-0.37764 -0.71286,-0.55942 -0.0848,-0.0639 -0.16945,-0.12789 -0.25324,-0.1932 -0.005,-0.004 -0.008,-0.006 -0.0126,-0.01 -0.009,-0.008 -0.0203,-0.0173 -0.0351,-0.0299 -0.36125,-0.30573 -0.7103,-0.62507 -1.04279,-0.96451 q -0.4429,-0.45219 -0.8471,-0.94295 -0.10101,-0.12257 -0.19942,-0.24734 c -0.0113,-0.0143 -0.0721,-0.0928 -0.1121,-0.14411 -0.0372,-0.0513 -0.1053,-0.14394 -0.11673,-0.16011 q -0.11498,-0.16258 -0.22585,-0.32818 a 15.423763,15.423763 0 0 1 -1.30275,-2.38238 q -0.054,-0.12361 -0.10554,-0.24866 c -0.009,-0.0255 -0.0211,-0.0581 -0.037,-0.10163 -0.0732,-0.20137 -0.14631,-0.40249 -0.21326,-0.60625 q -0.21338,-0.64916 -0.36689,-1.31748 -0.0759,-0.33001 -0.13666,-0.66337 -0.0313,-0.17143 -0.0586,-0.34357 c -0.003,-0.0191 -0.0207,-0.14287 -0.0312,-0.21283 -0.008,-0.0703 -0.0221,-0.19477 -0.024,-0.214 q -0.0174,-0.17352 -0.0308,-0.34738 -0.0303,-0.39122 -0.041,-0.78375 -0.0182,-0.6976 0.025,-1.39509 c 0.0164,-0.26127 0.0397,-0.52185 0.0685,-0.78195 0.002,-0.016 0.003,-0.0287 0.004,-0.0401 0.002,-0.0116 0.004,-0.0248 0.006,-0.0412 0.0213,-0.14374 0.0437,-0.28729 0.0687,-0.43038 a 15.736706,15.736706 0 0 1 0.36941,-1.61161 q 0.10744,-0.37625 0.23342,-0.7464 0.0561,-0.16431 0.11586,-0.32737 c -0.003,0.007 0.11679,-0.29792 0.11838,-0.30817 0.47369,-1.1192 1.24848,-2.1395 1.24954,-3.41088 6.9e-4,-0.86079 -0.72752,-1.68537 -1.58064,-1.64559 a 1.6424304,1.6424304 0 0 0 -1.58065,1.64559 c 0,0.0193 -1e-4,0.0358 -1e-4,0.0518 -0.008,0.0268 -0.0146,0.0492 -0.0206,0.0689 -0.0924,0.20074 -0.20554,0.39149 -0.30693,0.58725 -0.27766,0.53578 -0.51465,1.08915 -0.73977,1.65063 a 15.78919,15.78919 0 0 0 -0.84261,2.8282 17.989529,17.989529 0 0 0 -0.0956,6.42534 c 0.61286,3.73554 2.63391,7.31138 5.44364,9.71497 0.24384,0.20858 0.49362,0.41015 0.74576,0.60765 0.10433,0.0817 0.20954,0.16193 0.31528,0.24162 0.05,0.0377 0.25701,0.20094 0.16593,0.12184 0.19585,0.16714 0.27829,0.25125 0.3286,0.37436 0.007,0.0284 0.0172,0.0669 0.0307,0.11962 0.0354,0.13884 0.0691,0.27736 0.0971,0.41814 0.24456,1.23008 0.41455,2.48079 0.61884,3.71883 0.14042,0.85065 1.18765,1.40429 1.9444,1.14934 0.88081,-0.29677 1.25442,-1.11281 1.10396,-2.02427 z"
       fill="#e6e6e6"
       id="path2-0"
       style="stroke-width:0.0684199" /><path
       d="m 183.18674,133.16608 a 2.5067335,2.5067335 0 0 1 -2.51322,-2.49446 v -1.80307 c -1.88778,0.21133 -8.35206,0.16237 -10.20503,-0.13535 v 1.86631 a 2.5133159,2.5133159 0 0 1 -5.02649,0 v -3.66431 a 16.13318,16.13318 0 0 1 -8.29839,-14.06659 c 0,-4.92273 2.23098,-9.51494 6.12093,-12.5991 a 16.209006,16.209006 0 0 1 8.8242,-3.47478 c 0.43734,-0.0343 0.87734,-0.0517 1.30786,-0.0517 1.51666,0 8.35951,0.23429 10.0764,0.72825 l 3.91486,-3.88462 a 0.41096794,0.41096794 0 0 1 0.4495,-0.0896 0.40508398,0.40508398 0 0 1 0.25532,0.38001 v 0.61764 l 0.7623,-0.75496 a 0.41002943,0.41002943 0 0 1 0.44913,-0.0897 0.40525687,0.40525687 0 0 1 0.25561,0.38016 v 6.90197 a 16.079037,16.079037 0 0 1 -3.85977,26.4626 v 3.27682 a 2.5067335,2.5067335 0 0 1 -2.51321,2.49445 z m -2.31565,-4.52159 v 2.02713 a 2.3157174,2.3157174 0 0 0 4.63128,0 v -3.40161 l 0.0564,-0.0268 a 16.049116,16.049116 0 0 0 6.5726,-5.74779 15.838592,15.838592 0 0 0 -2.73642,-20.44565 l -0.0328,-0.0295 v -6.99009 a 0.20776998,0.20776998 0 0 0 -0.13256,-0.19715 0.21232026,0.21232026 0 0 0 -0.23525,0.0467 l -1.09924,1.08872 v -1.09142 a 0.20776998,0.20776998 0 0 0 -0.13256,-0.19715 0.21282903,0.21282903 0 0 0 -0.23564,0.0471 l -3.99867,3.96778 -0.0568,-0.0178 c -1.59606,-0.49955 -8.54662,-0.73639 -10.07481,-0.73639 -0.42539,0 -0.8602,0.0172 -1.29233,0.0511 a 16.011437,16.011437 0 0 0 -8.71695,3.43258 c -3.84241,3.04648 -6.04614,7.58226 -6.04614,12.4443 a 15.936333,15.936333 0 0 0 8.24745,13.92202 l 0.051,0.0282 v 3.78066 a 2.3157451,2.3157451 0 0 0 4.63133,0 v -2.10282 l 0.11705,0.022 c 1.66518,0.3133 8.67693,0.3627 10.37149,0.14042 z"
       fill="#3f3d56"
       id="path3"
       style="stroke-width:10;stroke-dasharray:none" /><path
       d="m 176.12915,82.318665 a 6.9184161,6.9184161 0 0 0 -6.91238,6.702927 c -0.002,0.07014 -0.003,0.14127 -0.003,0.212399 a 6.9153259,6.9153259 0 1 0 6.91532,-6.915326 z m 0,13.633075 a 6.7247593,6.7247593 0 0 1 -6.71774,-6.717749 q 0,-0.137813 0.006,-0.272661 a 6.7175476,6.7175476 0 1 1 6.7118,6.99041 z"
       fill="#3f3d56"
       id="path6-4"
       style="stroke-width:0.0684199" /><path
       d="m 181.95779,89.233991 a 5.828635,5.828635 0 0 1 -11.65727,0 c 0,-0.184738 0.009,-0.366512 0.0257,-0.546311 a 5.8286318,5.8286318 0 0 1 11.63161,0.546311 z"
       fill="#e6e6e6"
       id="path7-7"
       style="stroke-width:0.0684199" /><path
       d="m 177.86489,89.621249 a 1.3877607,1.3877607 0 0 0 -0.54036,-0.427762 5.2495938,5.2495938 0 0 0 -0.81208,-0.266734 V 87.34018 a 2.3112867,2.3112867 0 0 1 1.15486,0.526552 l 0.32208,-0.686593 a 2.1299876,2.1299876 0 0 0 -0.62834,-0.388246 3.0881188,3.0881188 0 0 0 -0.79722,-0.204496 v -0.804154 h -0.74585 V 86.5953 a 2.042237,2.042237 0 0 0 -0.81502,0.27365 1.6200435,1.6200435 0 0 0 -0.55227,0.541371 1.360455,1.360455 0 0 0 -0.19657,0.720182 1.2311997,1.2311997 0 0 0 0.22623,0.770565 1.43347,1.43347 0 0 0 0.56307,0.446532 5.2054681,5.2054681 0 0 0 0.82593,0.273649 v 1.520384 a 2.4685856,2.4685856 0 0 1 -1.37419,-0.548286 l -0.32203,0.687583 a 2.4283088,2.4283088 0 0 0 0.73499,0.41689 3.3748193,3.3748193 0 0 0 0.90986,0.18968 v 0.79724 h 0.74585 v -0.81206 a 1.9302156,1.9302156 0 0 0 1.10744,-0.50778 1.3425206,1.3425206 0 0 0 0.41296,-0.997783 1.190908,1.190908 0 0 0 -0.21934,-0.745868 z m -1.99554,-0.86244 a 1.4323191,1.4323191 0 0 1 -0.49694,-0.266734 0.52561021,0.52561021 0 0 1 -0.17583,-0.412943 0.66442155,0.66442155 0 0 1 0.17978,-0.475182 0.90908973,0.90908973 0 0 1 0.49299,-0.255867 z m 1.11139,2.102259 a 0.84539859,0.84539859 0 0 1 -0.46829,0.244013 v -1.307985 a 1.3079489,1.3079489 0 0 1 0.46829,0.234133 0.46014085,0.46014085 0 0 1 0.16102,0.365525 0.6721598,0.6721598 0 0 1 -0.16102,0.464314 z"
       fill="#6c63ff"
       id="path8"
       style="stroke-width:0.0684199" /><path
       d="m 157.82529,107.93012 a 9.6921256,9.6921256 0 0 1 -3.8649,-1.46132 9.4371477,9.4371477 0 0 1 -1.59783,-1.30684 c -0.47694,-0.48647 -0.93322,-1.03939 -1.16946,-1.68726 a 2.4992976,2.4992976 0 0 1 0.0327,-1.85422 2.4039174,2.4039174 0 0 1 1.30095,-1.29668 c 0.59172,-0.23597 1.30662,-0.26121 1.88249,-0.003 a 1.6882543,1.6882543 0 0 1 0.68801,0.55381 1.129661,1.129661 0 0 1 0.17884,0.37127 0.75808964,0.75808964 0 0 1 0.009,0.37136 0.89072756,0.89072756 0 0 1 -0.47161,0.56538 2.3777054,2.3777054 0 0 1 -0.80535,0.24562 c -0.28255,0.0385 -0.68844,0.0736 -0.91559,-0.15323 a 0.46128583,0.46128583 0 0 1 -0.10794,-0.15913 0.30767273,0.30767273 0 0 1 -0.017,-0.14404 c -0.003,0.0215 0.0137,-0.0467 0.0127,-0.044 -0.004,0.0101 -0.0191,0.0346 0.003,-0.003 a 0.33557409,0.33557409 0 0 1 0.023,-0.0359 c -0.008,0.01 -0.024,0.0259 0.005,-0.002 a 0.19381288,0.19381288 0 0 1 0.0903,-0.0558 c 0.0137,-0.004 0.0275,-0.007 0.0413,-0.0109 0.0349,-0.01 -0.0347,5e-4 8.9e-4,-5.9e-4 0.0138,-3.9e-4 0.0277,-10e-5 0.0414,-6.9e-4 0.035,-0.002 -0.0345,-0.01 -9.8e-4,-0.001 0.013,0.003 0.0259,0.006 0.0387,0.0105 0.0279,0.009 -0.0197,-0.0204 -8.9e-4,10e-4 0.0221,0.0256 -0.0232,-0.0249 0.002,-1e-4 a 0.45684619,0.45684619 0 0 1 0.0353,0.039 0.23307019,0.23307019 0 0 0 0.32749,0 0.23703267,0.23703267 0 0 0 0,-0.32749 c -0.22834,-0.28307 -0.67939,-0.21313 -0.91038,0.0261 -0.29459,0.30512 -0.17793,0.78866 0.10863,1.05489 0.32439,0.30138 0.78384,0.32233 1.20112,0.27178 a 2.9456325,2.9456325 0 0 0 1.0145,-0.28669 1.4224124,1.4224124 0 0 0 0.6939,-0.74963 1.3014456,1.3014456 0 0 0 -0.10436,-1.06387 c -0.36842,-0.69263 -1.1313,-1.04774 -1.88535,-1.10925 a 2.9451593,2.9451593 0 0 0 -2.15549,0.70761 2.9789466,2.9789466 0 0 0 -0.97686,1.98322 c -0.0658,0.78993 0.24066,1.55706 0.6875,2.19456 a 8.3603781,8.3603781 0 0 0 1.65765,1.71434 10.123368,10.123368 0 0 0 4.22941,1.99465 q 0.27586,0.057 0.55469,0.0976 a 0.23921199,0.23921199 0 0 0 0.28485,-0.16174 0.23326876,0.23326876 0 0 0 -0.16173,-0.28485 z"
       fill="#3f3d56"
       id="path10"
       style="stroke-width:0.0684199" /><path
       d="m 179.8936,97.86573 q -3.02922,-0.0428 -6.03935,0.15375 c -0.68593,0.0448 -1.27941,0.28722 -1.27941,0.6947 0,0.34068 0.58876,0.7398 1.27941,0.69469 q 3.0086,-0.19646 6.03935,-0.15375 c 1.64722,0.0233 1.64625,-1.36616 0,-1.38939 z"
       fill="#cccccc"
       id="path11"
       style="stroke-width:0.0684199" /><path
       d="m 176.90878,99.18631 c -0.21825,0 -5.34513,-0.008 -5.34513,-0.71633 0,-0.70813 5.12688,-0.71628 5.34513,-0.71628 0.21825,0 5.34512,0.008 5.34512,0.71628 0,0.70817 -5.12687,0.71633 -5.34512,0.71633 z m -5.14465,-0.71633 c 0.1403,0.2147 2.02484,0.51875 5.14465,0.51875 3.11981,0 5.00432,-0.30405 5.14465,-0.51875 -0.1403,-0.21466 -2.02484,-0.5187 -5.14465,-0.5187 -3.11981,0 -5.00435,0.30404 -5.14465,0.5187 z"
       fill="#3f3d56"
       id="path12"
       style="stroke-width:0.0684199" /><path
       d="m 193.17499,117.80338 c 1.13494,-0.0315 2.54742,-0.0709 3.63559,-0.8658 a 2.7920016,2.7920016 0 0 0 1.0986,-2.08481 c 0.0222,-0.62777 -0.2046,-1.17575 -0.63867,-1.54252 -0.56835,-0.48026 -1.39828,-0.59291 -2.29267,-0.33006 l 0.92666,-6.77189 -0.68024,-0.0932 -1.08938,7.96121 0.56806,-0.26066 c 0.65857,-0.30207 1.5626,-0.45579 2.12436,0.0189 a 1.2067649,1.2067649 0 0 1 0.39574,0.99404 2.1102502,2.1102502 0 0 1 -0.8175,1.55443 c -0.84682,0.61855 -1.9727,0.69834 -3.24966,0.73405 z"
       fill="#3f3d56"
       id="path13-2"
       style="stroke-width:0.068;stroke-dasharray:none" /><rect
       x="187.59625"
       y="106.79232"
       width="3.6979439"
       height="0.68660986"
       fill="#3f3d56"
       id="rect13-5"
       style="stroke-width:0.0684199" /><circle
       cx="-159.65454"
       cy="81.363716"
       r="1.9145883"
       fill="#6c63ff"
       id="circle24"
       style="stroke-width:0.182352"
       transform="rotate(-90)" /><rect
       x="74.122025"
       y="178.68372"
       width="28.2176"
       height="3.2462728"
       rx="0.52916664"
       fill="#3f3d56"
       id="rect24"
       ry="0.52916664"
       style="stroke-width:0.182352" /><rect
       x="74.122025"
       y="188.20128"
       width="28.2176"
       height="3.2462728"
       rx="0.52916664"
       fill="#3f3d56"
       id="rect25"
       ry="0.52916664"
       style="stroke-width:0.182352" /><rect
       style="fill:#d0cde1;fill-opacity:1;stroke:#3f3d56;stroke-width:0.499999;stroke-linecap:round;stroke-dasharray:none;stroke-opacity:1"
       id="rect26"
       width="44.657917"
       height="33.555023"
       x="78.32119"
       y="105.16209"
       rx="1.7600936"
       ry="1.1481545" /><path
       style="fill:#3f3d56;fill-opacity:1;stroke:#3f3d56;stroke-width:0.264583px;stroke-linecap:butt;stroke-linejoin:miter;stroke-opacity:1"
       d="m 118.03487,115.8638 h 5.00534"
       id="path23"
       sodipodi:nodetypes="cc" /><path
       fill="#111111"
       mask="url(#b)"
       d="M 18.637,0 4.09,3.81 0.081,18.439 5.095,23.587 0,28.65 l 3.773,14.693 14.484,4.047 5.096,-5.064 5.014,5.147 14.547,-3.81 4.008,-14.63 -5.013,-5.146 5.095,-5.063 L 43.231,4.13 28.745,0.083 23.651,5.146 Z m -8.927,6.624 7.663,-2.008 3.351,3.44 -4.887,4.856 z m 16.822,1.478 3.405,-3.383 7.63,2.132 -6.227,6.187 z m -21.86,9.136 2.111,-7.705 6.125,6.288 -4.886,4.856 -3.35,-3.44 z m 29.547,-1.243 6.227,-6.189 1.986,7.74 -3.404,3.384 z m -15.502,-0.127 4.887,-4.856 4.807,4.936 -4.886,4.856 z m -7.814,7.765 4.886,-4.856 4.81,4.936 -4.888,4.856 z m 15.503,0.127 4.886,-4.856 4.808,4.936 -4.887,4.856 z m -21.836,6.167 3.406,-3.385 4.807,4.937 -6.225,6.186 z m 14.021,1.598 4.887,-4.856 4.808,4.936 -4.886,4.856 z m 15.502,0.128 4.887,-4.856 3.351,3.439 -2.11,7.705 z m -24.656,8.97 6.226,-6.189 4.81,4.936 -3.406,3.385 -7.63,-2.133 z m 16.843,-1.206 4.886,-4.856 6.126,6.289 -7.662,2.007 z"
       id="path2-3"
       transform="matrix(0.17267953,0,0,0.17266537,107.64294,111.69048)"
       style="fill-rule:evenodd;stroke-width:1.53228"
       sodipodi:nodetypes="ccccccccccccccccccccccccccccccccccccccccccccccccccccccccccccccccccccccccccccccc" /><rect
       style="fill:none;fill-opacity:1;stroke:#3f3d56;stroke-width:0.5;stroke-linecap:round;stroke-dasharray:none;stroke-opacity:1"
       id="rect23"
       width="12.274287"
       height="12.27328"
       x="105.56413"
       y="109.65231"
       rx="1.7600933"
       ry="1.8856798" /><path
       style="fill:#3f3d56;fill-opacity:1;stroke:#3f3d56;stroke-width:0.264583px;stroke-linecap:butt;stroke-linejoin:miter;stroke-opacity:1"
       d="M 78.131572,115.8638 H 105.36421"
       id="path24"
       sodipodi:nodetypes="cc" /><path
       style="fill:none;stroke:#3f3d56;stroke-width:0.264583px;stroke-linecap:butt;stroke-linejoin:miter;stroke-opacity:1"
       d="m 108.78238,139.17554 v -7.6708 H 88.986351 v -8.04498"
       id="path26" /><ellipse
       cx="-125.51852"
       cy="89.028397"
       fill="#6c63ff"
       id="circle13"
       style="stroke-width:0.182352"
       transform="rotate(-90)"
       rx="2.8542495"
       ry="2.8544836" /><ellipse
       cx="-115.88748"
       cy="89.028397"
       fill="#6c63ff"
       id="circle26"
       style="fill:#02dcff;fill-opacity:1;stroke-width:0.182352"
       transform="rotate(-90)"
       rx="2.8542495"
       ry="2.8544836" /></g></svg>
